<?xml version="1.0" encoding="UTF-8" standalone="no"?>
<!-- Created with Inkscape (http://www.inkscape.org/) -->

<svg
   width="160.0045mm"
   height="136.18642mm"
   viewBox="0 0 160.0045 136.18642"
   version="1.1"
   id="svg1"
   xml:space="preserve"
   inkscape:version="1.3.2 (091e20e, 2023-11-25, custom)"
   sodipodi:docname="Logo.svg"
   inkscape:export-filename="Logo.png"
   inkscape:export-xdpi="96"
   inkscape:export-ydpi="96"
   xmlns:inkscape="http://www.inkscape.org/namespaces/inkscape"
   xmlns:sodipodi="http://sodipodi.sourceforge.net/DTD/sodipodi-0.dtd"
   xmlns="http://www.w3.org/2000/svg"
   xmlns:svg="http://www.w3.org/2000/svg"><sodipodi:namedview
     id="namedview1"
     pagecolor="#000000"
     bordercolor="#000000"
     borderopacity="0.25"
     inkscape:showpageshadow="false"
     inkscape:pageopacity="0.0"
     inkscape:pagecheckerboard="true"
     inkscape:deskcolor="#d1d1d1"
     inkscape:document-units="mm"
     inkscape:zoom="1.1483095"
     inkscape:cx="300.44165"
     inkscape:cy="318.29398"
     inkscape:window-width="2400"
     inkscape:window-height="1566"
     inkscape:window-x="-11"
     inkscape:window-y="-11"
     inkscape:window-maximized="1"
     inkscape:current-layer="layer1"
     showborder="true"
     shape-rendering="auto"
     labelstyle="below" /><defs
     id="defs1" /><g
     inkscape:label="Layer 1"
     inkscape:groupmode="layer"
     id="layer1"
     transform="translate(-25.608924,-64.419645)"><path
       style="fill:#ffffff"
       d="m 51.708611,200.35946 c -2.626281,-0.79078 -4.170904,-2.95916 -4.170904,-5.85522 0,-2.87097 1.658132,-5.09415 4.337519,-5.81563 1.910766,-0.51452 4.581143,0.21335 5.8238,1.5874 l 0.504028,0.55732 h 28.699877 28.699879 l 6.0761,-6.02948 6.0761,-6.02948 -1.36973,-1.445 c -1.77355,-1.87099 -2.78549,-3.33891 -3.6979,-5.36415 -1.36639,-3.03292 -1.67325,-5.03735 -1.79993,-11.75741 l -0.11597,-6.15156 h 8.22999 c 6.39311,0 8.23604,0.0738 8.25714,0.33073 0.0149,0.1819 0.0507,1.9976 0.0796,4.03489 0.0561,3.9614 0.25453,4.80306 1.42076,6.02549 1.35044,1.41552 2.28551,1.51514 14.22118,1.51514 12.06341,0 12.72032,-0.0743 14.31451,-1.61947 1.35953,-1.3177 1.81005,-2.99046 1.80852,-6.71491 -0.001,-3.00728 -0.0452,-3.2684 -0.83305,-4.94319 -0.59914,-1.27369 -1.15244,-2.00538 -1.97843,-2.61632 -1.41338,-1.04538 -5.88838,-3.20283 -15.03731,-7.24963 -18.56894,-8.21352 -21.76799,-9.80614 -24.97375,-12.43303 -1.68581,-1.38139 -3.49807,-4.16845 -4.40513,-6.77458 l -0.77654,-2.23116 -0.004,-8.9436 c -0.004,-10.13491 0.14007,-11.2928 1.85015,-14.868899 1.23248,-2.577345 3.33729,-4.972089 5.76265,-6.556452 2.391,-1.561916 3.93524,-2.170875 7.18391,-2.83291 2.64145,-0.538293 3.32652,-0.555299 19.30305,-0.479161 l 16.56441,0.07894 2.26064,0.809605 c 4.34737,1.556924 7.12885,4.056944 9.10787,8.186228 1.76921,3.691519 1.99294,5.009629 1.99294,11.741129 v 5.81154 l -1.65364,0.1676 c -0.90951,0.0922 -4.57068,0.13142 -8.13594,0.0872 l -6.48229,-0.0804 -0.13608,-3.30729 c -0.17183,-4.17642 -0.65884,-5.17734 -3.17121,-6.51749 -0.85334,-0.45518 -1.78198,-0.50022 -11.82779,-0.57363 -11.66844,-0.0853 -12.41121,-0.0209 -13.86241,1.20016 -1.40329,1.18078 -1.81403,2.45438 -1.82066,5.64539 -0.0108,5.22112 0.93482,6.532 6.76208,9.37363 4.99597,2.43626 13.86441,6.53246 20.74878,9.58357 3.1287,1.38662 6.64104,2.99533 7.80521,3.57491 5.25302,2.61523 8.66036,5.60771 10.32806,9.0706 1.63881,3.4029 1.77573,4.38887 1.90422,13.71275 0.12661,9.18786 -0.0647,11.68686 -1.08887,14.22242 -2.58131,6.39067 -7.83886,10.43374 -14.76677,11.35567 -1.51324,0.20138 -7.49249,0.26633 -18.61748,0.20224 l -16.38833,-0.0944 -1.88997,-0.68165 -1.88997,-0.68166 -6.31211,6.34131 c -3.47166,3.48772 -6.77646,6.68628 -7.344,7.10791 l -1.03188,0.7666 H 87.880782 59.511589 l -0.159213,0.99566 c -0.534788,3.34438 -4.274524,5.57622 -7.643765,4.56172 z m 3.331086,-4.08954 c 1.036819,-0.96089 0.985548,-2.50352 -0.113957,-3.42869 -1.42412,-1.19832 -3.100147,-0.73388 -3.67879,1.01943 -0.761372,2.30698 2.006174,4.065 3.792747,2.40926 z m -6.70824,-56.60559 c 0,-40.90631 0.01243,-41.948802 0.519675,-43.590103 0.899166,-2.909435 3.256966,-6.042185 5.368871,-7.133485 2.449208,-1.265596 3.579306,-1.324117 23.773432,-1.231096 18.770699,0.08646 18.901496,0.09078 20.873436,0.689067 5.079279,1.541044 9.727889,5.261667 11.786499,9.433581 1.89342,3.837166 1.97183,4.563126 1.97183,18.256246 0,13.98758 -0.0512,14.41363 -2.26209,18.82643 -2.5277,5.04509 -6.8967,8.40169 -12.769969,9.81086 -1.471423,0.35304 -4.30575,0.45026 -16.850227,0.57795 l -15.081249,0.15351 v 17.72708 c 0,9.7499 -0.09632,17.87591 -0.214053,18.05782 -0.163882,0.25321 -2.194812,0.33072 -8.665103,0.33072 h -8.451052 z m 41.401288,-11.03161 c 2.013006,-0.39936 3.461775,-1.37942 4.357485,-2.94775 1.142284,-2.00007 1.406083,-4.14693 1.286721,-10.47166 -0.0942,-4.99155 -0.156366,-5.59404 -0.704301,-6.8261 -0.715008,-1.60773 -2.157678,-3.08847 -3.590846,-3.6856 -1.592691,-0.6636 -6.99775,-0.94171 -16.68889,-0.85869 l -8.731249,0.0748 -0.06869,12.60485 -0.06869,12.60484 11.445776,-0.11671 c 6.295177,-0.0642 12.038388,-0.23428 12.762691,-0.37797 z m -52.471714,0.61972 c -3.762028,-3.8783 -4.377259,-4.72846 -4.131217,-5.70877 0.08548,-0.34057 1.217181,-1.85965 2.514894,-3.37572 1.297713,-1.51607 2.361395,-2.84918 2.363739,-2.96247 0.0023,-0.11329 -0.371002,-0.94673 -0.829656,-1.85209 -0.458655,-0.90535 -1.160116,-2.53907 -1.558802,-3.63047 l -0.724885,-1.98438 -4.328177,-0.47257 c -3.3968,-0.37088 -4.402176,-0.57015 -4.672054,-0.92604 -0.262853,-0.34662 -0.325195,-1.75256 -0.264584,-5.96698 l 0.07929,-5.513511 0.705728,-0.606544 c 0.730003,-0.627406 3.488914,-1.248864 7.154193,-1.611516 l 1.774505,-0.175574 0.445466,-1.359463 c 0.245007,-0.747705 0.908774,-2.287072 1.47504,-3.420816 l 1.029573,-2.061352 -2.654232,-3.353128 c -2.024701,-2.557832 -2.655935,-3.543637 -2.66141,-4.156356 -0.0062,-0.69141 0.546343,-1.340304 3.96895,-4.66123 2.186871,-2.121901 4.282423,-4.021926 4.656784,-4.222278 0.666786,-0.356853 0.745884,-0.298431 3.881749,2.867054 l 3.201093,3.231329 2.401905,-1.170353 c 1.321047,-0.643693 3.068297,-1.361779 3.882776,-1.595744 l 1.480873,-0.425393 0.248851,-4.125487 c 0.329279,-5.458829 0.103233,-5.241053 5.710674,-5.50174 5.28516,-0.245704 6.291259,-0.05567 7.027717,1.327428 0.160993,0.302351 0.421387,2.259782 0.578653,4.349845 0.157266,2.090063 0.322531,3.836707 0.367255,3.881431 0.04472,0.04472 0.975756,0.310076 2.068962,0.58967 1.093205,0.279595 2.802319,0.877745 3.79803,1.329222 l 1.810385,0.820868 0.94303,-0.908255 c 2.051363,-1.975718 5.39946,-4.394803 6.082558,-4.394803 0.534401,0 1.586471,0.900168 4.719402,4.037999 2.58878,2.592828 4.031694,4.233149 4.031694,4.583275 0,0.683777 -4.131591,4.770452 -5.057936,5.00295 -0.363528,0.09124 -3.047722,0.128974 -5.964876,0.08385 l -5.303916,-0.08204 -1.627544,-1.142307 c -3.656479,-2.566335 -7.455869,-3.752484 -12.019695,-3.752484 -8.956871,0 -17.439684,6.066311 -21.116348,15.100926 -1.348899,3.314634 -1.635397,4.843307 -1.483925,7.917817 0.160925,3.26638 0.890469,5.68 2.589112,8.5658 2.095705,3.56037 1.944735,2.78593 2.043785,10.4842 l 0.09021,7.01146 -2.017671,1.78594 c -1.184049,1.04806 -2.257817,1.78629 -2.598913,1.78681 -0.399914,6e-4 -1.682425,-1.13435 -4.111044,-3.63802 z m 7.39179,-19.91007 c -0.651812,-1.51517 -1.348447,-4.7902 -1.348447,-6.33932 0,-0.55022 0.180937,-2.05779 0.402082,-3.35016 1.305005,-7.626427 8.66095,-15.356705 16.334798,-17.166052 2.430202,-0.572994 6.017332,-0.505006 8.678891,0.164496 2.355316,0.592467 4.415209,1.498119 4.994182,2.195738 0.313075,0.377233 -0.04785,0.417515 -3.74098,0.417515 -4.523794,0 -8.985251,0.365186 -11.539849,0.944579 -5.921045,1.342915 -10.327713,5.730183 -11.993299,11.940501 -0.432359,1.612094 -0.581991,3.135343 -0.683564,6.958673 -0.07152,2.69213 -0.216651,5.05409 -0.32251,5.2488 -0.127415,0.23435 -0.391499,-0.10864 -0.781304,-1.01477 z"
       id="path1"
       sodipodi:nodetypes="sssscccccssscsscssscsssssccsssscssscsscsssscsssssssscccsscccssssssssssssssssscssscssssssscccsssssscsscssscsscsscscssscsscssssssscsssssscsssssscssssssssssssssss" /></g></svg>
